<svg xmlns="http://www.w3.org/2000/svg" xmlns:xlink="http://www.w3.org/1999/xlink" width="500" zoomAndPan="magnify" viewBox="0 0 375 374.999991" height="500" preserveAspectRatio="xMidYMid meet" version="1.0"><defs><g/><clipPath id="81cf3c4393"><path d="M 42 157.785156 L 69 157.785156 L 69 181 L 42 181 Z M 42 157.785156 " clip-rule="nonzero"/></clipPath><clipPath id="3c3d162c82"><path d="M 32.453125 172 L 78.953125 172 L 78.953125 217.035156 L 32.453125 217.035156 Z M 32.453125 172 " clip-rule="nonzero"/></clipPath><clipPath id="d9647be575"><path d="M 47 172 L 78.953125 172 L 78.953125 205 L 47 205 Z M 47 172 " clip-rule="nonzero"/></clipPath></defs><g clip-path="url(#81cf3c4393)"><path fill="#ed7a07" d="M 68.152344 170.378906 L 68.152344 172.347656 L 63.75 172.347656 L 63.75 170.378906 C 63.75 165.878906 60.085938 162.210938 55.566406 162.210938 C 51.066406 162.210938 47.398438 165.878906 47.398438 170.378906 L 47.398438 180.605469 L 42.996094 180.605469 L 42.996094 170.378906 C 42.996094 163.441406 48.628906 157.8125 55.566406 157.8125 C 62.503906 157.8125 68.152344 163.441406 68.152344 170.378906 Z M 68.152344 170.378906 " fill-opacity="1" fill-rule="nonzero"/></g><g clip-path="url(#3c3d162c82)"><path fill="#ffffff" d="M 78.726562 212.839844 L 78.726562 217.242188 L 32.421875 217.242188 L 32.421875 172.347656 L 42.996094 172.347656 L 42.996094 176.746094 L 36.824219 176.746094 L 36.824219 212.839844 Z M 78.726562 212.839844 " fill-opacity="1" fill-rule="nonzero"/></g><g clip-path="url(#d9647be575)"><path fill="#ffffff" d="M 78.726562 172.347656 L 78.726562 204.703125 L 62.210938 204.703125 L 51.84375 195.019531 L 51.84375 203.410156 L 47.441406 203.410156 L 47.441406 187.761719 L 63.078125 187.761719 L 63.078125 192.160156 L 55.214844 192.160156 L 63.941406 200.300781 L 74.328125 200.300781 L 74.328125 176.746094 L 51.402344 176.746094 L 51.402344 172.347656 Z M 78.726562 172.347656 " fill-opacity="1" fill-rule="nonzero"/></g><g fill="#ffffff" fill-opacity="1"><g transform="translate(89.608959, 207.712868)"><g><path d="M 8.796875 0.421875 C 6.410156 0.421875 4.5 -0.25 3.0625 -1.59375 C 1.625 -2.9375 0.90625 -4.847656 0.90625 -7.328125 L 5.390625 -7.328125 C 5.421875 -6.179688 5.691406 -5.269531 6.203125 -4.59375 C 6.710938 -3.914062 7.539062 -3.578125 8.6875 -3.578125 C 9.757812 -3.578125 10.539062 -3.894531 11.03125 -4.53125 C 11.519531 -5.175781 11.765625 -6.023438 11.765625 -7.078125 L 11.765625 -24.515625 L 16.25 -24.515625 L 16.25 -7.078125 C 16.25 -4.671875 15.578125 -2.816406 14.234375 -1.515625 C 12.890625 -0.222656 11.078125 0.421875 8.796875 0.421875 Z M 8.796875 0.421875 "/></g></g></g><g fill="#ffffff" fill-opacity="1"><g transform="translate(108.237307, 207.712868)"><g><path d="M 8.796875 0.421875 C 6.617188 0.421875 4.941406 -0.253906 3.765625 -1.609375 C 2.585938 -2.960938 2 -4.945312 2 -7.5625 L 2 -17.375 L 6.453125 -17.375 L 6.453125 -7.984375 C 6.453125 -6.492188 6.753906 -5.347656 7.359375 -4.546875 C 7.960938 -3.753906 8.921875 -3.359375 10.234375 -3.359375 C 11.460938 -3.359375 12.476562 -3.800781 13.28125 -4.6875 C 14.09375 -5.582031 14.5 -6.820312 14.5 -8.40625 L 14.5 -17.375 L 18.984375 -17.375 L 18.984375 0 L 15.03125 0 L 14.671875 -2.9375 C 14.140625 -1.914062 13.363281 -1.097656 12.34375 -0.484375 C 11.332031 0.117188 10.148438 0.421875 8.796875 0.421875 Z M 8.796875 0.421875 "/></g></g></g><g fill="#ffffff" fill-opacity="1"><g transform="translate(129.526853, 207.712868)"><g><path d="M 9.640625 -5.1875 C 8.796875 -5.1875 8.007812 -5.28125 7.28125 -5.46875 L 5.984375 -4.171875 C 6.378906 -3.960938 6.914062 -3.785156 7.59375 -3.640625 C 8.28125 -3.503906 9.378906 -3.363281 10.890625 -3.21875 C 13.203125 -3.007812 14.882812 -2.460938 15.9375 -1.578125 C 16.988281 -0.691406 17.515625 0.535156 17.515625 2.109375 C 17.515625 3.128906 17.234375 4.097656 16.671875 5.015625 C 16.109375 5.941406 15.242188 6.691406 14.078125 7.265625 C 12.910156 7.835938 11.414062 8.125 9.59375 8.125 C 7.125 8.125 5.128906 7.660156 3.609375 6.734375 C 2.085938 5.816406 1.328125 4.4375 1.328125 2.59375 C 1.328125 1.03125 2.085938 -0.320312 3.609375 -1.46875 C 3.140625 -1.675781 2.734375 -1.894531 2.390625 -2.125 C 2.054688 -2.363281 1.757812 -2.613281 1.5 -2.875 L 1.5 -3.671875 L 4.546875 -6.90625 C 3.191406 -8.09375 2.515625 -9.617188 2.515625 -11.484375 C 2.515625 -12.648438 2.800781 -13.710938 3.375 -14.671875 C 3.945312 -15.628906 4.757812 -16.390625 5.8125 -16.953125 C 6.863281 -17.515625 8.140625 -17.796875 9.640625 -17.796875 C 10.617188 -17.796875 11.523438 -17.65625 12.359375 -17.375 L 18.953125 -17.375 L 18.953125 -14.640625 L 15.96875 -14.4375 C 16.4375 -13.550781 16.671875 -12.566406 16.671875 -11.484375 C 16.671875 -10.316406 16.390625 -9.253906 15.828125 -8.296875 C 15.273438 -7.335938 14.46875 -6.578125 13.40625 -6.015625 C 12.34375 -5.460938 11.085938 -5.1875 9.640625 -5.1875 Z M 9.640625 -8.625 C 10.546875 -8.625 11.296875 -8.867188 11.890625 -9.359375 C 12.484375 -9.847656 12.78125 -10.546875 12.78125 -11.453125 C 12.78125 -12.367188 12.484375 -13.070312 11.890625 -13.5625 C 11.296875 -14.050781 10.546875 -14.296875 9.640625 -14.296875 C 8.679688 -14.296875 7.910156 -14.050781 7.328125 -13.5625 C 6.742188 -13.070312 6.453125 -12.367188 6.453125 -11.453125 C 6.453125 -10.546875 6.742188 -9.847656 7.328125 -9.359375 C 7.910156 -8.867188 8.679688 -8.625 9.640625 -8.625 Z M 5.4375 2.140625 C 5.4375 3.003906 5.835938 3.648438 6.640625 4.078125 C 7.441406 4.515625 8.425781 4.734375 9.59375 4.734375 C 10.71875 4.734375 11.628906 4.503906 12.328125 4.046875 C 13.023438 3.585938 13.375 2.972656 13.375 2.203125 C 13.375 1.578125 13.144531 1.050781 12.6875 0.625 C 12.238281 0.207031 11.335938 -0.046875 9.984375 -0.140625 C 9.023438 -0.210938 8.140625 -0.316406 7.328125 -0.453125 C 6.648438 -0.078125 6.164062 0.328125 5.875 0.765625 C 5.582031 1.210938 5.4375 1.671875 5.4375 2.140625 Z M 5.4375 2.140625 "/></g></g></g><g fill="#ffffff" fill-opacity="1"><g transform="translate(149.450787, 207.712868)"><g><path d="M 8.265625 0.421875 C 6.773438 0.421875 5.550781 0.179688 4.59375 -0.296875 C 3.632812 -0.773438 2.921875 -1.410156 2.453125 -2.203125 C 1.984375 -2.992188 1.75 -3.867188 1.75 -4.828125 C 1.75 -6.441406 2.378906 -7.75 3.640625 -8.75 C 4.898438 -9.757812 6.789062 -10.265625 9.3125 -10.265625 L 13.734375 -10.265625 L 13.734375 -10.6875 C 13.734375 -11.875 13.394531 -12.75 12.71875 -13.3125 C 12.039062 -13.875 11.195312 -14.15625 10.1875 -14.15625 C 9.28125 -14.15625 8.488281 -13.9375 7.8125 -13.5 C 7.132812 -13.070312 6.710938 -12.4375 6.546875 -11.59375 L 2.171875 -11.59375 C 2.285156 -12.851562 2.707031 -13.953125 3.4375 -14.890625 C 4.175781 -15.828125 5.128906 -16.546875 6.296875 -17.046875 C 7.472656 -17.546875 8.785156 -17.796875 10.234375 -17.796875 C 12.703125 -17.796875 14.648438 -17.175781 16.078125 -15.9375 C 17.503906 -14.695312 18.21875 -12.945312 18.21875 -10.6875 L 18.21875 0 L 14.390625 0 L 13.984375 -2.796875 C 13.460938 -1.867188 12.738281 -1.097656 11.8125 -0.484375 C 10.894531 0.117188 9.710938 0.421875 8.265625 0.421875 Z M 9.28125 -3.078125 C 10.5625 -3.078125 11.554688 -3.5 12.265625 -4.34375 C 12.984375 -5.1875 13.4375 -6.226562 13.625 -7.46875 L 9.8125 -7.46875 C 8.613281 -7.46875 7.757812 -7.25 7.25 -6.8125 C 6.738281 -6.382812 6.484375 -5.851562 6.484375 -5.21875 C 6.484375 -4.539062 6.738281 -4.015625 7.25 -3.640625 C 7.757812 -3.265625 8.4375 -3.078125 9.28125 -3.078125 Z M 9.28125 -3.078125 "/></g></g></g><g fill="#ffffff" fill-opacity="1"><g transform="translate(169.654849, 207.712868)"><g><path d="M 8.265625 0.421875 C 6.773438 0.421875 5.550781 0.179688 4.59375 -0.296875 C 3.632812 -0.773438 2.921875 -1.410156 2.453125 -2.203125 C 1.984375 -2.992188 1.75 -3.867188 1.75 -4.828125 C 1.75 -6.441406 2.378906 -7.75 3.640625 -8.75 C 4.898438 -9.757812 6.789062 -10.265625 9.3125 -10.265625 L 13.734375 -10.265625 L 13.734375 -10.6875 C 13.734375 -11.875 13.394531 -12.75 12.71875 -13.3125 C 12.039062 -13.875 11.195312 -14.15625 10.1875 -14.15625 C 9.28125 -14.15625 8.488281 -13.9375 7.8125 -13.5 C 7.132812 -13.070312 6.710938 -12.4375 6.546875 -11.59375 L 2.171875 -11.59375 C 2.285156 -12.851562 2.707031 -13.953125 3.4375 -14.890625 C 4.175781 -15.828125 5.128906 -16.546875 6.296875 -17.046875 C 7.472656 -17.546875 8.785156 -17.796875 10.234375 -17.796875 C 12.703125 -17.796875 14.648438 -17.175781 16.078125 -15.9375 C 17.503906 -14.695312 18.21875 -12.945312 18.21875 -10.6875 L 18.21875 0 L 14.390625 0 L 13.984375 -2.796875 C 13.460938 -1.867188 12.738281 -1.097656 11.8125 -0.484375 C 10.894531 0.117188 9.710938 0.421875 8.265625 0.421875 Z M 9.28125 -3.078125 C 10.5625 -3.078125 11.554688 -3.5 12.265625 -4.34375 C 12.984375 -5.1875 13.4375 -6.226562 13.625 -7.46875 L 9.8125 -7.46875 C 8.613281 -7.46875 7.757812 -7.25 7.25 -6.8125 C 6.738281 -6.382812 6.484375 -5.851562 6.484375 -5.21875 C 6.484375 -4.539062 6.738281 -4.015625 7.25 -3.640625 C 7.757812 -3.265625 8.4375 -3.078125 9.28125 -3.078125 Z M 9.28125 -3.078125 "/></g></g></g><g fill="#ffffff" fill-opacity="1"><g transform="translate(189.858911, 207.712868)"><g><path d="M 2.28125 0 L 2.28125 -17.375 L 6.265625 -17.375 L 6.6875 -14.125 C 7.320312 -15.238281 8.179688 -16.128906 9.265625 -16.796875 C 10.347656 -17.460938 11.628906 -17.796875 13.109375 -17.796875 L 13.109375 -13.0625 L 11.84375 -13.0625 C 10.863281 -13.0625 9.988281 -12.910156 9.21875 -12.609375 C 8.445312 -12.304688 7.84375 -11.78125 7.40625 -11.03125 C 6.976562 -10.28125 6.765625 -9.242188 6.765625 -7.921875 L 6.765625 0 Z M 2.28125 0 "/></g></g></g><g fill="#ffffff" fill-opacity="1"><g transform="translate(203.725133, 207.712868)"><g><path d="M 10.265625 0.421875 C 8.628906 0.421875 7.164062 0.0234375 5.875 -0.765625 C 4.59375 -1.566406 3.578125 -2.65625 2.828125 -4.03125 C 2.085938 -5.40625 1.71875 -6.96875 1.71875 -8.71875 C 1.71875 -10.46875 2.085938 -12.023438 2.828125 -13.390625 C 3.578125 -14.765625 4.59375 -15.84375 5.875 -16.625 C 7.164062 -17.40625 8.628906 -17.796875 10.265625 -17.796875 C 11.566406 -17.796875 12.707031 -17.550781 13.6875 -17.0625 C 14.675781 -16.570312 15.472656 -15.882812 16.078125 -15 L 16.078125 -25.21875 L 20.5625 -25.21875 L 20.5625 0 L 16.5625 0 L 16.078125 -2.484375 C 15.515625 -1.710938 14.769531 -1.035156 13.84375 -0.453125 C 12.925781 0.128906 11.734375 0.421875 10.265625 0.421875 Z M 11.203125 -3.5 C 12.648438 -3.5 13.835938 -3.984375 14.765625 -4.953125 C 15.691406 -5.921875 16.15625 -7.164062 16.15625 -8.6875 C 16.15625 -10.207031 15.691406 -11.453125 14.765625 -12.421875 C 13.835938 -13.390625 12.648438 -13.875 11.203125 -13.875 C 9.785156 -13.875 8.609375 -13.394531 7.671875 -12.4375 C 6.734375 -11.476562 6.265625 -10.238281 6.265625 -8.71875 C 6.265625 -7.207031 6.734375 -5.957031 7.671875 -4.96875 C 8.609375 -3.988281 9.785156 -3.5 11.203125 -3.5 Z M 11.203125 -3.5 "/></g></g></g><g fill="#ffffff" fill-opacity="1"><g transform="translate(226.555374, 207.712868)"><g/></g></g><g fill="#ffffff" fill-opacity="1"><g transform="translate(234.88911, 207.712868)"><g><path d="M 2.375 0 L 2.375 -24.515625 L 12.21875 -24.515625 C 14.769531 -24.515625 16.71875 -23.925781 18.0625 -22.75 C 19.40625 -21.570312 20.078125 -20.0625 20.078125 -18.21875 C 20.078125 -16.675781 19.660156 -15.441406 18.828125 -14.515625 C 17.992188 -13.597656 16.984375 -12.972656 15.796875 -12.640625 C 17.203125 -12.359375 18.359375 -11.660156 19.265625 -10.546875 C 20.179688 -9.441406 20.640625 -8.15625 20.640625 -6.6875 C 20.640625 -4.75 19.9375 -3.148438 18.53125 -1.890625 C 17.132812 -0.628906 15.148438 0 12.578125 0 Z M 6.859375 -14.21875 L 11.5625 -14.21875 C 12.820312 -14.21875 13.789062 -14.507812 14.46875 -15.09375 C 15.144531 -15.675781 15.484375 -16.503906 15.484375 -17.578125 C 15.484375 -18.609375 15.148438 -19.421875 14.484375 -20.015625 C 13.816406 -20.609375 12.816406 -20.90625 11.484375 -20.90625 L 6.859375 -20.90625 Z M 6.859375 -3.640625 L 11.875 -3.640625 C 13.207031 -3.640625 14.238281 -3.945312 14.96875 -4.5625 C 15.707031 -5.1875 16.078125 -6.0625 16.078125 -7.1875 C 16.078125 -8.320312 15.691406 -9.21875 14.921875 -9.875 C 14.148438 -10.53125 13.113281 -10.859375 11.8125 -10.859375 L 6.859375 -10.859375 Z M 6.859375 -3.640625 "/></g></g></g><g fill="#ffffff" fill-opacity="1"><g transform="translate(256.984022, 207.712868)"><g><path d="M 8.265625 0.421875 C 6.773438 0.421875 5.550781 0.179688 4.59375 -0.296875 C 3.632812 -0.773438 2.921875 -1.410156 2.453125 -2.203125 C 1.984375 -2.992188 1.75 -3.867188 1.75 -4.828125 C 1.75 -6.441406 2.378906 -7.75 3.640625 -8.75 C 4.898438 -9.757812 6.789062 -10.265625 9.3125 -10.265625 L 13.734375 -10.265625 L 13.734375 -10.6875 C 13.734375 -11.875 13.394531 -12.75 12.71875 -13.3125 C 12.039062 -13.875 11.195312 -14.15625 10.1875 -14.15625 C 9.28125 -14.15625 8.488281 -13.9375 7.8125 -13.5 C 7.132812 -13.070312 6.710938 -12.4375 6.546875 -11.59375 L 2.171875 -11.59375 C 2.285156 -12.851562 2.707031 -13.953125 3.4375 -14.890625 C 4.175781 -15.828125 5.128906 -16.546875 6.296875 -17.046875 C 7.472656 -17.546875 8.785156 -17.796875 10.234375 -17.796875 C 12.703125 -17.796875 14.648438 -17.175781 16.078125 -15.9375 C 17.503906 -14.695312 18.21875 -12.945312 18.21875 -10.6875 L 18.21875 0 L 14.390625 0 L 13.984375 -2.796875 C 13.460938 -1.867188 12.738281 -1.097656 11.8125 -0.484375 C 10.894531 0.117188 9.710938 0.421875 8.265625 0.421875 Z M 9.28125 -3.078125 C 10.5625 -3.078125 11.554688 -3.5 12.265625 -4.34375 C 12.984375 -5.1875 13.4375 -6.226562 13.625 -7.46875 L 9.8125 -7.46875 C 8.613281 -7.46875 7.757812 -7.25 7.25 -6.8125 C 6.738281 -6.382812 6.484375 -5.851562 6.484375 -5.21875 C 6.484375 -4.539062 6.738281 -4.015625 7.25 -3.640625 C 7.757812 -3.265625 8.4375 -3.078125 9.28125 -3.078125 Z M 9.28125 -3.078125 "/></g></g></g><g fill="#ffffff" fill-opacity="1"><g transform="translate(277.188084, 207.712868)"><g><path d="M 1.15625 0 L 1.15625 -3.609375 L 10.015625 -13.65625 L 1.265625 -13.65625 L 1.265625 -17.375 L 15.140625 -17.375 L 15.140625 -13.765625 L 6.125 -3.71875 L 15.3125 -3.71875 L 15.3125 0 Z M 1.15625 0 "/></g></g></g><g fill="#ffffff" fill-opacity="1"><g transform="translate(293.960601, 207.712868)"><g><path d="M 8.265625 0.421875 C 6.773438 0.421875 5.550781 0.179688 4.59375 -0.296875 C 3.632812 -0.773438 2.921875 -1.410156 2.453125 -2.203125 C 1.984375 -2.992188 1.75 -3.867188 1.75 -4.828125 C 1.75 -6.441406 2.378906 -7.75 3.640625 -8.75 C 4.898438 -9.757812 6.789062 -10.265625 9.3125 -10.265625 L 13.734375 -10.265625 L 13.734375 -10.6875 C 13.734375 -11.875 13.394531 -12.75 12.71875 -13.3125 C 12.039062 -13.875 11.195312 -14.15625 10.1875 -14.15625 C 9.28125 -14.15625 8.488281 -13.9375 7.8125 -13.5 C 7.132812 -13.070312 6.710938 -12.4375 6.546875 -11.59375 L 2.171875 -11.59375 C 2.285156 -12.851562 2.707031 -13.953125 3.4375 -14.890625 C 4.175781 -15.828125 5.128906 -16.546875 6.296875 -17.046875 C 7.472656 -17.546875 8.785156 -17.796875 10.234375 -17.796875 C 12.703125 -17.796875 14.648438 -17.175781 16.078125 -15.9375 C 17.503906 -14.695312 18.21875 -12.945312 18.21875 -10.6875 L 18.21875 0 L 14.390625 0 L 13.984375 -2.796875 C 13.460938 -1.867188 12.738281 -1.097656 11.8125 -0.484375 C 10.894531 0.117188 9.710938 0.421875 8.265625 0.421875 Z M 9.28125 -3.078125 C 10.5625 -3.078125 11.554688 -3.5 12.265625 -4.34375 C 12.984375 -5.1875 13.4375 -6.226562 13.625 -7.46875 L 9.8125 -7.46875 C 8.613281 -7.46875 7.757812 -7.25 7.25 -6.8125 C 6.738281 -6.382812 6.484375 -5.851562 6.484375 -5.21875 C 6.484375 -4.539062 6.738281 -4.015625 7.25 -3.640625 C 7.757812 -3.265625 8.4375 -3.078125 9.28125 -3.078125 Z M 9.28125 -3.078125 "/></g></g></g><g fill="#ffffff" fill-opacity="1"><g transform="translate(314.164663, 207.712868)"><g><path d="M 8.265625 0.421875 C 6.773438 0.421875 5.550781 0.179688 4.59375 -0.296875 C 3.632812 -0.773438 2.921875 -1.410156 2.453125 -2.203125 C 1.984375 -2.992188 1.75 -3.867188 1.75 -4.828125 C 1.75 -6.441406 2.378906 -7.75 3.640625 -8.75 C 4.898438 -9.757812 6.789062 -10.265625 9.3125 -10.265625 L 13.734375 -10.265625 L 13.734375 -10.6875 C 13.734375 -11.875 13.394531 -12.75 12.71875 -13.3125 C 12.039062 -13.875 11.195312 -14.15625 10.1875 -14.15625 C 9.28125 -14.15625 8.488281 -13.9375 7.8125 -13.5 C 7.132812 -13.070312 6.710938 -12.4375 6.546875 -11.59375 L 2.171875 -11.59375 C 2.285156 -12.851562 2.707031 -13.953125 3.4375 -14.890625 C 4.175781 -15.828125 5.128906 -16.546875 6.296875 -17.046875 C 7.472656 -17.546875 8.785156 -17.796875 10.234375 -17.796875 C 12.703125 -17.796875 14.648438 -17.175781 16.078125 -15.9375 C 17.503906 -14.695312 18.21875 -12.945312 18.21875 -10.6875 L 18.21875 0 L 14.390625 0 L 13.984375 -2.796875 C 13.460938 -1.867188 12.738281 -1.097656 11.8125 -0.484375 C 10.894531 0.117188 9.710938 0.421875 8.265625 0.421875 Z M 9.28125 -3.078125 C 10.5625 -3.078125 11.554688 -3.5 12.265625 -4.34375 C 12.984375 -5.1875 13.4375 -6.226562 13.625 -7.46875 L 9.8125 -7.46875 C 8.613281 -7.46875 7.757812 -7.25 7.25 -6.8125 C 6.738281 -6.382812 6.484375 -5.851562 6.484375 -5.21875 C 6.484375 -4.539062 6.738281 -4.015625 7.25 -3.640625 C 7.757812 -3.265625 8.4375 -3.078125 9.28125 -3.078125 Z M 9.28125 -3.078125 "/></g></g></g><g fill="#ffffff" fill-opacity="1"><g transform="translate(334.368725, 207.712868)"><g><path d="M 2.28125 0 L 2.28125 -17.375 L 6.265625 -17.375 L 6.6875 -14.125 C 7.320312 -15.238281 8.179688 -16.128906 9.265625 -16.796875 C 10.347656 -17.460938 11.628906 -17.796875 13.109375 -17.796875 L 13.109375 -13.0625 L 11.84375 -13.0625 C 10.863281 -13.0625 9.988281 -12.910156 9.21875 -12.609375 C 8.445312 -12.304688 7.84375 -11.78125 7.40625 -11.03125 C 6.976562 -10.28125 6.765625 -9.242188 6.765625 -7.921875 L 6.765625 0 Z M 2.28125 0 "/></g></g></g></svg>